<svg width="290" height="87" viewBox="0 0 290 87" fill="none" xmlns="http://www.w3.org/2000/svg">
<path d="M0 66.6826V14.1554H21.1773C26.0457 14.1554 30.1838 15.5596 33.5916 18.3678C37.0251 21.1517 38.7418 24.4728 38.7418 28.3312C38.7418 30.5778 38.0628 32.7145 36.7048 34.7414C35.3724 36.7438 33.6813 38.1358 31.6315 38.9172C34.45 39.5521 36.7432 41.0295 38.5112 43.3494C40.2792 45.6693 41.1632 48.3921 41.1632 51.5179C41.1632 55.7914 39.4336 59.3933 35.9746 62.3237C32.5155 65.2297 28.3774 66.6826 23.5603 66.6826H0ZM13.3752 34.8147H20.5624C21.9204 34.8147 23.0606 34.3995 23.983 33.5692C24.9055 32.739 25.3667 31.7255 25.3667 30.529C25.3667 29.3812 24.8926 28.3922 23.9446 27.5619C23.0222 26.7317 21.8948 26.3165 20.5624 26.3165H13.3752V34.8147ZM13.3752 54.5215H22.3688C23.8549 54.5215 25.1104 54.0331 26.1354 53.0563C27.1859 52.0795 27.7112 50.8952 27.7112 49.5032C27.7112 48.1113 27.1987 46.9269 26.1738 45.9501C25.1745 44.9733 23.9574 44.4849 22.5225 44.4849H13.3752V54.5215Z" fill="white"/>
<path d="M49.3989 34.485C53.2423 30.7976 58.021 28.9539 63.7349 28.9539C69.4488 28.9539 74.2403 30.7976 78.1094 34.485C81.9784 38.1724 83.9129 42.7755 83.9129 48.2944C83.9129 51.8842 83.029 55.1442 81.261 58.0746C79.493 61.005 77.0716 63.3005 73.9969 64.961C70.9221 66.5972 67.5015 67.4152 63.7349 67.4152C58.021 67.4152 53.2423 65.596 49.3989 61.9574C45.5811 58.3188 43.6722 53.7645 43.6722 48.2944C43.6722 42.7511 45.5811 38.148 49.3989 34.485ZM63.7349 40.4923C61.5313 40.4923 59.6993 41.2371 58.2388 42.7267C56.7783 44.1919 56.048 46.0478 56.048 48.2944C56.048 50.4678 56.7783 52.2749 58.2388 53.7157C59.6993 55.1564 61.5313 55.8768 63.7349 55.8768C65.9897 55.8768 67.8474 55.1564 69.3079 53.7157C70.794 52.2749 71.5371 50.4678 71.5371 48.2944C71.5371 46.0478 70.794 44.1919 69.3079 42.7267C67.8474 41.2371 65.9897 40.4923 63.7349 40.4923Z" fill="white"/>
<path d="M113.633 41.2615H104.409V50.712C104.409 52.397 104.999 53.679 106.177 54.5582C107.356 55.4373 108.868 55.8768 110.712 55.8768C111.865 55.8768 112.839 55.7792 113.633 55.5838V66.6826C112.173 67.0734 110.226 67.2687 107.791 67.2687C103 67.2687 99.1437 65.8157 96.2227 62.9098C93.3017 59.9794 91.8412 55.9867 91.8412 50.9318V41.2615H84.7308V29.6865H91.8412V20.236H104.409V29.6865H113.633V41.2615Z" fill="white"/>
<rect x="128.2" width="161.8" height="87" rx="4" fill="#1C64F2"/>
<path d="M169.333 28.9539C174.278 28.9539 178.147 30.4557 180.94 33.4594C183.733 36.463 185.13 40.6144 185.13 45.9135V66.6826H172.485V47.4886C172.485 45.3885 171.896 43.7035 170.717 42.4337C169.538 41.1394 167.975 40.4923 166.028 40.4923C164.106 40.4923 162.543 41.1394 161.339 42.4337C160.16 43.7035 159.571 45.3885 159.571 47.4886V66.6826H146.964V14.1554H159.571V33.9722C162.005 30.6266 165.259 28.9539 169.333 28.9539Z" fill="white"/>
<path d="M216.426 29.6865H229.071V66.6826H216.426V62.4702C213.966 65.7669 210.738 67.4152 206.741 67.4152C201.795 67.4152 197.914 65.9256 195.095 62.9464C192.302 59.9427 190.906 55.7914 190.906 50.4922V29.6865H203.512V48.9172C203.512 51.0173 204.101 52.7022 205.28 53.9721C206.484 55.2419 208.073 55.8768 210.046 55.8768C211.968 55.8768 213.505 55.2419 214.658 53.9721C215.837 52.7022 216.426 51.0173 216.426 48.9172V29.6865Z" fill="white"/>
<path d="M258.791 28.9539C262.02 28.9539 264.979 29.8208 267.67 31.5546C270.386 33.2884 272.513 35.6327 274.05 38.5875C275.613 41.5179 276.394 44.7291 276.394 48.2212C276.394 53.5203 274.678 58.0502 271.244 61.8109C267.836 65.5471 263.685 67.4152 258.791 67.4152C253.949 67.4152 250.169 65.6692 247.453 62.1772V66.6826H234.847V14.1554H247.453V34.1919C250.169 30.6999 253.949 28.9539 258.791 28.9539ZM255.794 55.9501C258.074 55.9501 260.021 55.2053 261.636 53.7157C263.25 52.2016 264.057 50.3701 264.057 48.2212C264.057 46.0478 263.25 44.2163 261.636 42.7267C260.047 41.2371 258.1 40.4923 255.794 40.4923C253.462 40.4923 251.489 41.2371 249.875 42.7267C248.26 44.2163 247.453 46.0478 247.453 48.2212C247.453 50.3701 248.26 52.2016 249.875 53.7157C251.489 55.2053 253.462 55.9501 255.794 55.9501Z" fill="white"/>
</svg>
